<?xml version="1.0" encoding="UTF-8" standalone="no"?>
<!-- Created with Inkscape (http://www.inkscape.org/) -->

<svg
   version="1.1"
   id="svg2"
   width="1122.52"
   height="441.13333"
   viewBox="0 0 1122.52 441.13333"
   sodipodi:docname="Sendtins Approved Logo.ai"
   xmlns:inkscape="http://www.inkscape.org/namespaces/inkscape"
   xmlns:sodipodi="http://sodipodi.sourceforge.net/DTD/sodipodi-0.dtd"
   xmlns="http://www.w3.org/2000/svg"
   xmlns:svg="http://www.w3.org/2000/svg">
  <defs
     id="defs6">
    <clipPath
       clipPathUnits="userSpaceOnUse"
       id="clipPath16">
      <path
         d="M 0,330.85 H 841.89 V 0 H 0 Z"
         id="path14" />
    </clipPath>
  </defs>
  <sodipodi:namedview
     id="namedview4"
     pagecolor="#ffffff"
     bordercolor="#000000"
     borderopacity="0.25"
     inkscape:showpageshadow="2"
     inkscape:pageopacity="0.0"
     inkscape:pagecheckerboard="0"
     inkscape:deskcolor="#d1d1d1" />
  <g
     id="g8"
     inkscape:groupmode="layer"
     inkscape:label="Sendtins Approved Logo"
     transform="matrix(1.3333333,0,0,-1.3333333,0,441.13333)">
    <g
       id="g10">
      <g
         id="g12"
         clip-path="url(#clipPath16)">
        <g
           id="g18"
           transform="translate(35.6907,211.4031)">
          <path
             d="m 0,0 c -5.204,-0.868 -10.165,-1.695 -15.125,-2.524 -0.965,-0.162 -1.93,-0.323 -2.892,-0.498 -3.066,-0.557 -5.573,0.802 -6.163,3.348 -0.568,2.452 1.299,4.856 4.415,5.415 6.017,1.081 12.054,2.052 18.082,3.072 1.607,0.273 3.207,0.597 4.819,0.833 3.129,0.46 5.954,-1.655 6.18,-4.819 0.713,-10.004 1.331,-20.014 1.985,-30.021 0.935,-14.319 1.874,-28.639 2.801,-42.958 0.869,-13.426 1.729,-26.851 2.587,-40.278 0.505,-7.892 1.053,-15.783 1.461,-23.68 0.099,-1.902 1.205,-1.773 2.466,-1.767 19.191,0.091 38.383,0.159 57.573,0.268 20.906,0.118 41.814,0.158 62.716,0.501 4.442,0.072 5.985,-4.189 4.688,-6.997 -0.895,-1.937 -2.393,-2.418 -4.359,-2.426 -15.271,-0.066 -30.541,-0.187 -45.812,-0.278 -26.949,-0.161 -53.899,-0.312 -80.848,-0.468 -4.899,-0.029 -6.003,1.621 -5.897,6.591 0.116,5.442 -0.48,10.901 -0.829,16.349 -0.731,11.391 -1.508,22.779 -2.256,34.17 C 4.651,-71.849 3.715,-57.529 2.788,-43.209 1.918,-29.784 1.063,-16.358 0.201,-2.933 0.145,-2.057 0.081,-1.183 0,0"
             style="fill:#e63124;fill-opacity:1;fill-rule:nonzero;stroke:none"
             id="path20" />
        </g>
        <g
           id="g22"
           transform="translate(83.4007,57.3655)">
          <path
             d="m 0,0 c -2.814,-0.036 -5.338,2.479 -5.329,5.311 0.008,2.608 2.523,5.282 5.098,5.42 C 2.314,10.867 5.141,8.115 5.228,5.415 5.317,2.624 2.819,0.036 0,0"
             style="fill:#e63124;fill-opacity:1;fill-rule:nonzero;stroke:none"
             id="path24" />
        </g>
        <g
           id="g26"
           transform="translate(144.0916,57.3655)">
          <path
             d="m 0,0 c -2.822,0.021 -5.29,2.548 -5.245,5.369 0.043,2.707 2.476,5.136 5.186,5.178 C 2.761,10.591 5.295,8.116 5.313,5.302 5.33,2.493 2.811,-0.021 0,0"
             style="fill:#e63124;fill-opacity:1;fill-rule:nonzero;stroke:none"
             id="path28" />
        </g>
        <g
           id="g30"
           transform="translate(158.1888,237.8167)">
          <path
             d="m 0,0 c -28.989,0.002 -57.977,0.002 -86.965,0 -9.908,-0.001 -15.714,-5.763 -15.716,-15.602 -0.004,-21.044 -0.001,-42.088 -0.001,-63.132 0,-20.963 -0.001,-41.926 0.001,-62.889 10e-4,-10.087 5.706,-15.828 15.731,-15.829 28.907,-0.001 57.814,-0.001 86.721,0 10.266,0.001 15.962,5.654 15.963,15.846 0.002,41.925 0.002,83.851 0,125.777 C 15.733,-5.738 10.029,-0.001 0,0"
             style="fill:#e63124;fill-opacity:1;fill-rule:nonzero;stroke:none"
             id="path32" />
        </g>
        <g
           id="g34"
           transform="translate(76.6936,129.6775)">
          <path
             d="M 0,0 V 5.84 H 14.755 V 0.257 c 0,-17.521 9.406,-24.736 27.008,-24.736 18.207,0 27.612,5.84 27.612,19.669 0,14.602 -12.856,20.872 -31.581,26.626 -21.313,6.528 -36.845,17.436 -36.845,38.48 0,20.614 16.222,31.952 40.21,31.952 25.369,0 41.678,-11.682 41.678,-35.731 V 50.075 H 68.082 v 5.841 c 0,16.663 -9.32,23.104 -26.664,23.104 -16.653,0 -26.145,-5.497 -26.145,-18.724 0,-14.945 13.547,-20.958 32.185,-27.056 22.608,-7.387 36.328,-16.491 36.328,-37.535 0,-21.129 -15.791,-33.412 -41.85,-33.412 C 15.532,-37.707 0,-25.167 0,0"
             style="fill:#ffffff;fill-opacity:1;fill-rule:nonzero;stroke:none"
             id="path36" />
        </g>
        <g
           id="g38"
           transform="translate(193.6931,146.512)">
          <path
             d="M 0,0 H 61.61 C 60.661,14.688 50.565,26.541 32.272,26.541 15.101,26.541 2.675,16.491 0,0 m 32.013,-54.627 c -27.526,0 -46.855,19.412 -46.855,47.154 0,27.915 19.588,47.241 46.942,47.241 27.784,0 45.301,-19.583 45.301,-46.21 0,-1.804 -0.173,-5.583 -0.345,-6.613 H -0.259 c 2.157,-17.608 14.238,-28.173 32.703,-28.173 19.415,0 28.044,9.104 28.907,17.093 H 76.02 C 74.812,-38.737 59.884,-54.627 32.013,-54.627"
             style="fill:#e63124;fill-opacity:1;fill-rule:nonzero;stroke:none"
             id="path40" />
        </g>
        <g
           id="g42"
           transform="translate(293.9544,184.9055)">
          <path
             d="m 0,0 h 14.669 v -13.399 c 7.162,9.019 18.207,14.774 30.373,14.774 21.228,0 35.206,-12.626 35.206,-33.67 V -91.217 H 65.579 v 55.057 c 0,14.258 -6.817,23.62 -23.557,23.62 -14.755,0 -27.353,-12.368 -27.353,-27.915 V -91.217 H 0 Z"
             style="fill:#e63124;fill-opacity:1;fill-rule:nonzero;stroke:none"
             id="path44" />
        </g>
        <g
           id="g46"
           transform="translate(467.5598,133.3709)">
          <path
             d="M 0,0 V 12.884 C 0,27.743 -13.288,39.51 -27.957,39.51 -44.266,39.51 -56.26,28.773 -56.26,6.012 c 0,-22.675 12.08,-33.583 28.303,-33.583 C -12.684,-27.571 0,-15.46 0,0 m -71.361,6.012 c 0,30.062 19.07,46.897 41.333,46.897 11.476,0 22.435,-4.724 30.028,-12.798 V 94.566 H 14.756 V -39.682 H 0 v 11.424 c -7.42,-8.16 -18.034,-13.142 -30.028,-13.142 -22.608,0 -41.333,16.749 -41.333,47.412"
             style="fill:#e63124;fill-opacity:1;fill-rule:nonzero;stroke:none"
             id="path48" />
        </g>
        <g
           id="g50"
           transform="translate(549.6135,207.4954)">
          <path
             d="M 0,0 V -113.807 H -14.669 V 0 H -47.977 V 12.884 H 33.394 V 0 Z"
             style="fill:#6e6e6e;fill-opacity:1;fill-rule:nonzero;stroke:none"
             id="path52" />
        </g>
        <path
           d="m 603.797,184.906 h 14.496 V 93.689 h -14.496 z m -2.676,29.46 c 0,5.154 4.574,8.418 10.01,8.418 5.35,0 9.923,-3.264 9.923,-8.418 0,-5.325 -4.573,-8.502 -9.923,-8.502 -5.436,0 -10.01,3.263 -10.01,8.502"
           style="fill:#6e6e6e;fill-opacity:1;fill-rule:nonzero;stroke:none"
           id="path54" />
        <g
           id="g56"
           transform="translate(645.6448,184.9055)">
          <path
             d="m 0,0 h 14.669 v -13.399 c 7.162,9.019 18.207,14.774 30.374,14.774 21.227,0 35.205,-12.626 35.205,-33.67 V -91.217 H 65.579 v 55.057 c 0,14.258 -6.816,23.62 -23.557,23.62 -14.754,0 -27.353,-12.368 -27.353,-27.915 V -91.217 H 0 Z"
             style="fill:#6e6e6e;fill-opacity:1;fill-rule:nonzero;stroke:none"
             id="path58" />
        </g>
        <g
           id="g60"
           transform="translate(747.8889,118.6834)">
          <path
             d="m 0,0 v 2.663 h 14.756 v -1.89 c 0,-9.276 9.146,-14.258 24.16,-14.258 13.72,0 24.075,4.037 24.075,12.712 0,9.448 -8.974,12.454 -26.663,15.461 -18.639,3.177 -34.947,9.705 -34.947,26.883 0,16.663 16.394,26.026 37.19,26.026 19.933,0 37.191,-9.706 37.191,-27.314 V 38.565 H 61.093 v 1.289 c 0,9.963 -10.873,14.601 -22.349,14.601 -10.873,0 -22.867,-3.092 -22.867,-12.282 0,-9.277 10.269,-12.283 26.318,-15.203 C 61.265,23.534 77.487,17.608 77.487,0 77.487,-17.78 59.712,-26.712 38.571,-26.712 16.567,-26.712 0,-17.264 0,0"
             style="fill:#6e6e6e;fill-opacity:1;fill-rule:nonzero;stroke:none"
             id="path62" />
        </g>
      </g>
    </g>
  </g>
</svg>
